<mxfile host="app.diagrams.net" modified="2024-03-15T16:51:56.837Z" agent="Mozilla/5.0 (Macintosh; Intel Mac OS X 10.15; rv:123.0) Gecko/20100101 Firefox/123.0" etag="QFQJeVL_c75HSz_mSvY5" version="24.0.7" type="github">
  <diagram name="Page-1" id="X0xSt-SWy11rhMywBng7">
    <mxGraphModel dx="2074" dy="1157" grid="1" gridSize="10" guides="1" tooltips="1" connect="1" arrows="1" fold="1" page="1" pageScale="1" pageWidth="2336" pageHeight="1654" math="0" shadow="0">
      <root>
        <mxCell id="0" />
        <mxCell id="1" parent="0" />
        <mxCell id="Mb9JKRKesuMYNs0WhxOA-1" value="asdasdasd" style="ellipse;whiteSpace=wrap;html=1;" parent="1" vertex="1">
          <mxGeometry x="440" y="170" width="320" height="320" as="geometry" />
        </mxCell>
        <mxCell id="o0Uh5H3JJScIPqs3Vi3s-1" value="" style="whiteSpace=wrap;html=1;aspect=fixed;" vertex="1" parent="1">
          <mxGeometry x="820" y="200" width="370" height="370" as="geometry" />
        </mxCell>
      </root>
    </mxGraphModel>
  </diagram>
</mxfile>
